:SAMPLES-PER-SECOND 30
:FULLY-SPECIFIED
:DEGREES
60
root  9.86609 39.3551 -2.4309 -79.0648 86.3695 -82.6907
RightUpLeg  2.77017 3.31355 9.93417
RightLeg  11.8154 8.1563 -0.87575
RightFoot  -6.60119 0.205575 -3.61268
RightToes  8.73114e-010 -1.59028e-015 9.93923e-017
Spine  2.10916 3.02466 8.69892
Spine1  2.87976 3.85404 -3.09924
HEad  -19.9499 -4.2814 2.68708
LeftShoulder1  9.93923e-017 0 1.22299e-017
LeftArm  17.6998 58.401 -62.3281
LeftForeArm  -6.33087 -7.48896 -6.90792
LeftHand  1.04778 8.45359 -12.0818
RightShoulder  1.98785e-016 -4.96962e-017 1.55301e-017
RightArm  32.9824 -4.16531 78.5098
RightForeArm  -41.0894 27.1786 -24.9923
RightHand  1.65622 -12.5523 -8.98265
LeftUpLeg  -28.5466 -6.46752 3.20082
LeftLeg  33.2559 -6.13746 3.01491
LeftFoot  4.11081 0.801746 -5.12102
LeftToes  -2.6557e-010 -5.74853e-011 7.92038e-011
61
root  11.6763 39.2324 -2.44301 -53.3905 86.2481 -57.3075
RightUpLeg  6.15118 2.85311 9.04516
RightLeg  10.1028 9.34979 -0.702872
RightFoot  -6.70637 0.149716 -2.67357
RightToes  8.73114e-010 -1.59028e-015 9.93923e-017
Spine  1.7522 4.11968 9.06916
Spine1  2.96049 5.08537 -4.74689
HEad  -20.5799 -4.97674 2.86574
LeftShoulder1  9.93923e-017 0 1.22299e-017
LeftArm  17.9512 61.2689 -54.5582
LeftForeArm  -3.80024 -6.80768 -6.47015
LeftHand  1.05123 8.39691 -11.669
RightShoulder  1.98785e-016 -4.96962e-017 1.55301e-017
RightArm  30.5873 0.906391 76.6203
RightForeArm  -38.5219 28.6192 -26.1559
RightHand  1.64915 -12.5578 -8.83918
LeftUpLeg  -29.8973 -6.11197 3.20945
LeftLeg  21.0622 -4.49608 1.65092
LeftFoot  4.45603 0.656939 -4.09695
LeftToes  -2.6557e-010 -5.74853e-011 7.92038e-011
62
root  13.5111 39.0281 -2.46789 -38.4343 86.1276 -42.0964
RightUpLeg  9.82242 1.97034 7.81033
RightLeg  9.06038 10.5898 -0.373548
RightFoot  -6.42634 0.0879895 -1.50568
RightToes  8.73114e-010 -1.59028e-015 9.93923e-017
Spine  1.7544 4.53354 9.45602
Spine1  3.87588 5.90058 -6.49173
HEad  -22.1085 -5.35264 3.33464
LeftShoulder1  9.93923e-017 0 1.22299e-017
LeftArm  18.1673 62.4412 -47.6875
LeftForeArm  -1.98759 -5.50986 -6.3452
LeftHand  1.05429 8.08238 -9.66227
RightShoulder  1.98785e-016 -4.96962e-017 1.55301e-017
RightArm  27.7134 5.1877 75.4106
RightForeArm  -36.594 29.3684 -26.8157
RightHand  1.67856 -12.6187 -9.17199
LeftUpLeg  -29.8806 -4.98673 1.96029
LeftLeg  8.58091 -5.03094 0.955048
LeftFoot  3.22039 0.58555 -3.93615
LeftToes  -2.6557e-010 -5.74853e-011 7.92038e-011
63
root  15.4784 38.6932 -2.53065 -33.1765 86.4317 -36.1028
RightUpLeg  13.7659 0.949266 6.56005
RightLeg  9.04342 11.669 -0.113299
RightFoot  -6.03953 0.0196686 -0.30082
RightToes  8.73114e-010 -1.59028e-015 9.93923e-017
Spine  1.7236 4.36747 9.91833
Spine1  5.4012 6.26634 -7.99857
HEad  -23.9326 -5.4922 3.76603
LeftShoulder1  9.93923e-017 0 1.22299e-017
LeftArm  15.2927 62.0086 -43.4848
LeftForeArm  1.06878 -3.36328 -6.21327
LeftHand  1.07607 8.06682 -6.91596
RightShoulder  1.98785e-016 -4.96962e-017 1.55301e-017
RightArm  24.7325 8.18335 74.8378
RightForeArm  -35.7246 29.7644 -27.1603
RightHand  1.76043 -12.7714 -10.1162
LeftUpLeg  -29.2617 -4.19343 0.468533
LeftLeg  0.055531 -5.46171 0.489073
LeftFoot  1.24247 0.620417 -4.8114
LeftToes  -2.6557e-010 -5.74853e-011 7.92038e-011
64
root  17.6055 38.2449 -2.61183 -21.3949 86.9264 -24.119
RightUpLeg  16.9374 0.425897 5.08194
RightLeg  9.80642 12.0019 -0.12128
RightFoot  -5.54164 -0.121439 1.90426
RightToes  8.73114e-010 -1.59028e-015 9.93923e-017
Spine  0.742514 4.2734 9.61225
Spine1  7.0423 6.60215 -9.16763
HEad  -24.8578 -5.5872 4.34458
LeftShoulder1  9.93923e-017 0 1.22299e-017
LeftArm  10.2238 60.8435 -41.7512
LeftForeArm  4.12236 -2.01785 -5.38701
LeftHand  1.15977 8.6618 -4.40387
RightShoulder  1.98785e-016 -4.96962e-017 1.55301e-017
RightArm  21.8827 9.03707 74.7839
RightForeArm  -35.542 30.2571 -27.536
RightHand  1.83648 -12.8914 -11.0232
LeftUpLeg  -29.8408 -4.65295 -0.711797
LeftLeg  -0.681347 -4.10884 0.22349
LeftFoot  1.4132 0.657833 -4.98146
LeftToes  -2.6557e-010 -5.74853e-011 7.92038e-011
65
root  19.8531 37.7253 -2.69178 4.15817 86.6589 1.03741
RightUpLeg  18.3317 0.917694 2.88929
RightLeg  12.7751 11.6582 0.262205
RightFoot  -3.96608 -0.416098 5.21398
RightToes  8.73114e-010 -1.59028e-015 9.93923e-017
Spine  -0.586709 4.58284 8.25253
Spine1  7.88746 7.11378 -10.0821
HEad  -24.8376 -5.78989 5.49081
LeftShoulder1  9.93923e-017 0 1.22299e-017
LeftArm  6.35296 59.8484 -41.5212
LeftForeArm  2.89165 -1.4668 -4.62308
LeftHand  1.26129 9.30943 -2.58286
RightShoulder  1.98785e-016 -4.96962e-017 1.55301e-017
RightArm  19.3907 7.2998 75.2781
RightForeArm  -35.36 31.0649 -28.154
RightHand  1.8805 -12.9612 -11.5302
LeftUpLeg  -31.7281 -6.26094 -1.66455
LeftLeg  5.37197 -1.44114 1.13062
LeftFoot  5.28066 0.594906 -3.54921
LeftToes  -2.6557e-010 -5.74853e-011 7.92038e-011
66
root  22.103 37.1881 -2.78 24.77 85.4918 21.8239
RightUpLeg  17.6795 0.746466 -0.432294
RightLeg  20.16 12.7391 1.45552
RightFoot  1.62383 -0.918958 7.02023
RightToes  8.73114e-010 -1.59028e-015 9.93923e-017
Spine  -0.413417 4.86673 6.45634
Spine1  7.47304 7.39843 -10.8504
HEad  -25.1005 -6.00784 6.85146
LeftShoulder1  9.93923e-017 0 1.22299e-017
LeftArm  2.61098 58.9667 -43.3715
LeftForeArm  -1.82815 -1.27492 -4.23936
LeftHand  1.28865 9.39915 -1.72422
RightShoulder  1.98785e-016 -4.96962e-017 1.55301e-017
RightArm  17.8838 3.65232 76.6289
RightForeArm  -35.1605 31.6923 -28.6494
RightHand  1.93723 -13.1113 -11.9655
LeftUpLeg  -33.6018 -9.41974 -1.86157
LeftLeg  14.792 1.79897 2.98061
LeftFoot  8.59134 0.247465 -1.1904
LeftToes  -2.6557e-010 -5.74853e-011 7.92038e-011
67
root  24.1399 36.7308 -2.87031 38.7777 84.0513 36.9176
RightUpLeg  14.8247 0.245889 -4.0508
RightLeg  31.3393 13.9355 2.92925
RightFoot  12.9376 -1.46398 6.42194
RightToes  8.73114e-010 -1.59028e-015 9.93923e-017
Spine  1.60369 4.63974 4.07732
Spine1  6.80367 7.08917 -11.4866
HEad  -26.0723 -5.83964 7.45661
LeftShoulder1  9.93923e-017 0 1.22299e-017
LeftArm  -3.95953 57.2447 -48.7497
LeftForeArm  -5.50191 -1.09316 -3.71587
LeftHand  1.24673 9.13238 -2.21342
RightShoulder  1.98785e-016 -4.96962e-017 1.55301e-017
RightArm  18.3506 -0.638612 79.1075
RightForeArm  -35.6088 31.0512 -28.1326
RightHand  1.98789 -13.2619 -12.2855
LeftUpLeg  -34.1074 -10.957 -3.88198
LeftLeg  23.8288 2.12493 5.46842
LeftFoot  6.84053 -0.156293 1.0138
LeftToes  -2.6557e-010 -5.74853e-011 7.92038e-011
68
root  25.9217 36.4111 -2.93879 47.3758 82.5589 46.4524
RightUpLeg  9.64805 0.742778 -6.62907
RightLeg  43.0399 12.5976 2.56225
RightFoot  23.5392 -2.15482 6.48528
RightToes  8.73114e-010 -1.59028e-015 9.93923e-017
Spine  3.41511 4.16033 1.04222
Spine1  6.87162 6.28059 -11.6594
HEad  -26.5404 -4.98725 7.04645
LeftShoulder1  9.93923e-017 0 1.22299e-017
LeftArm  -12.4649 53.7527 -56.8477
LeftForeArm  -5.76357 -0.892429 -3.06157
LeftHand  1.20644 8.99833 -3.61121
RightShoulder  1.98785e-016 -4.96962e-017 1.55301e-017
RightArm  21.6322 -5.13777 82.5027
RightForeArm  -37.3968 28.4993 -26.1414
RightHand  1.92041 -13.0929 -11.7566
LeftUpLeg  -33.6032 -11.4033 -6.54792
LeftLeg  30.64 1.8214 7.71794
LeftFoot  1.41338 -0.273471 2.16081
LeftToes  -2.6557e-010 -5.74853e-011 7.92038e-011
